#N canvas 0 23 1680 1001 10;
#X declare -stdpath cyclone;
#X declare -stdpath zexy;
#X declare -stdpath maxlib;
#X obj 9 10 declare -stdpath cyclone;
#X obj 105 139 bng 15 250 50 0 empty empty empty 17 7 0 10 -262144
-1 -1;
#X obj 34 166 counter;
#X msg 401 189 nth 1 \$1;
#X floatatom 97 171 5 0 0 0 - - -, f 5;
#X floatatom 541 217 5 0 0 0 - - -, f 5;
#X obj 438 216 coll schedule;
#C restore;
#X obj 434 5 tgl 15 0 empty empty empty 17 7 0 10 -262144 -1 -1 0 1
;
#X obj 438 240 route 1 2 3;
#X obj 972 390 bng 15 250 50 0 empty empty empty 17 7 0 10 -262144
-1 -1;
#X obj 920 408 counter;
#X obj 187 441 bng 15 250 50 0 empty empty empty 17 7 0 10 -262144
-1 -1;
#X obj 145 460 counter;
#X floatatom 201 461 5 0 0 0 - - -, f 5;
#X obj 586 438 bng 15 250 50 0 empty empty empty 17 7 0 10 -262144
-1 -1;
#X obj 544 457 counter;
#X floatatom 600 458 5 0 0 0 - - -, f 5;
#X obj 928 479 t b;
#X obj 965 504 bng 15 250 50 0 empty empty empty 17 7 0 10 -262144
-1 -1;
#X obj 143 484 == 1;
#X obj 146 527 t b;
#X obj 185 550 bng 15 250 50 0 empty empty empty 17 7 0 10 -262144
-1 -1;
#X obj 543 477 == 1;
#X obj 545 518 t b;
#X obj 579 544 bng 15 250 50 0 empty empty empty 17 7 0 10 -262144
-1 -1;
#X obj 921 435 == 1;
#X obj 920 457 moses 0.5;
#X floatatom 980 410 5 0 0 0 - - -, f 5;
#X obj 145 508 moses 0.5;
#X obj 545 497 moses 0.5;
#X obj 56 229 t b;
#X obj 54 207 moses 0.5;
#X obj 54 188 == 1440;
#X obj 701 20 bng 15 250 50 0 empty empty empty 17 7 0 10 -262144 -1
-1;
#X obj 701 44 s reset-c-all;
#X obj 63 120 r reset-c-all;
#X obj 959 318 r reset-c-all;
#X obj 165 377 r reset-c-all;
#X obj 584 355 r reset-c-all;
#X obj 130 209 bng 15 250 50 0 empty empty empty 17 7 0 10 -262144
-1 -1;
#X obj 89 230 counter;
#X floatatom 146 230 10 0 0 0 - - -, f 10;
#X obj 1012 466 bng 15 250 50 0 empty empty empty 17 7 0 10 -262144
-1 -1;
#X obj 980 486 counter;
#X floatatom 1036 487 5 0 0 0 - - -, f 5;
#X obj 243 510 bng 15 250 50 0 empty empty empty 17 7 0 10 -262144
-1 -1;
#X obj 204 529 counter;
#X floatatom 260 530 5 0 0 0 - - -, f 5;
#X obj 644 502 bng 15 250 50 0 empty empty empty 17 7 0 10 -262144
-1 -1;
#X obj 604 518 counter;
#X floatatom 660 519 5 0 0 0 - - -, f 5;
#X obj 1012 443 r reset-c-all;
#X obj 245 485 r reset-c-all;
#X obj 644 482 r reset-c-all;
#X obj 129 185 r reset-c-all;
#X obj 236 869 *~;
#X obj 251 829 line~;
#X obj 298 803 0 50;
#X obj 285 779 delay 50;
#X obj 637 918 output~;
#X obj 1015 869 *~;
#X obj 1030 829 line~;
#X obj 1080 804 0 50;
#X obj 1064 779 delay 50;
#X obj 653 879 *~;
#X obj 668 839 line~;
#X obj 717 816 0 50;
#X obj 702 789 delay 50;
#X obj 184 819 osc~ 440;
#X obj 601 829 osc~ 500;
#X obj 251 804 0.5 50;
#X obj 668 814 0.5 50;
#X obj 1030 804 0.5 50;
#X obj 964 819 osc~ 560;
#X obj 8 32 declare -stdpath zexy;
#X obj 787 694 r reset-c-all;
#X obj 367 670 r reset-c-all;
#X obj 1140 625 r reset-c-all;
#X obj 520 27 s universal-metro;
#X obj 703 70 bng 15 250 50 0 empty empty empty 17 7 0 10 -262144 -1
-1;
#X obj 703 90 s reset-stress;
#X text 22 93 relative time;
#X text 516 69 world time;
#X obj 701 114 bng 15 250 50 0 empty empty empty 17 7 0 10 -262144
-1 -1;
#X obj 702 133 s reset-fatigue;
#X obj 1117 603 t b;
#X obj 360 651 t b;
#X obj 758 675 t b;
#X obj 594 407 t b;
#X obj 196 417 t b;
#X obj 984 366 t b;
#X obj 9 60 declare -stdpath maxlib;
#X text 516 242 finds which state each minute is scheduled to be;
#X text 1017 406 counts how long state has been active for;
#X text 997 502 counts number of times state has been activated;
#X obj 422 85 >= 5;
#X obj 434 139 pack \$1 \$2;
#X obj 438 163 route 0 1;
#X obj 476 54 zexy/time;
#X obj 468 76 * 60;
#X obj 488 97 +;
#X obj 393 61 zexy/date;
#X msg 472 187 nth 2 \$1;
#X text 243 114 determines schedule based on day of week;
#N canvas 55 116 1322 396 state-sleep 0;
#X obj 18 11 inlet;
#X obj 47 176 tgl 15 0 empty empty empty 17 7 0 10 -262144 -1 -1 0
1;
#X obj 141 10 inlet;
#X msg 23 34 1;
#X msg 72 155 0;
#X obj 1014 26 r work-fatigue;
#X obj 993 47 r relax-fatigue;
#X obj 1115 229 f;
#X obj 1149 229 - 1;
#X obj 1114 255 expr if($f1 <= 0 \, 0 \, $f1);
#X obj 1114 278 route 0;
#X floatatom 1117 311 5 0 0 0 - - -, f 5;
#X floatatom 1174 310 5 0 0 0 - - -, f 5;
#X obj 1118 160 spigot;
#X obj 880 139 r reset-fatigue;
#X msg 991 142 send sleep-fatigue;
#X msg 941 206 0;
#X floatatom 88 58 5 0 0 0 - - -, f 5;
#X obj 134 32 t b;
#X obj 94 111 != 0;
#X obj 95 132 moses 0.5;
#X obj 113 91 spigot;
#X obj 10 59 delay 10;
#X obj 163 32 bng 15 250 50 0 empty empty empty 17 7 0 10 -262144 -1
-1;
#X obj 167 75 tgl 15 0 empty empty empty 17 7 0 10 -262144 -1 -1 0
1;
#X floatatom 978 302 5 0 0 0 - - -, f 5;
#X floatatom 1113 140 5 0 0 0 - - -, f 5;
#X obj 975 272 r sleep-fatigue;
#X obj 1117 51 t b;
#X obj 1117 74 delay 10;
#X obj 977 165 t b;
#X obj 977 187 delay 10;
#X obj 272 55 == 0;
#X obj 272 81 moses 0.5;
#X obj 317 105 t b;
#X obj 269 104 t b;
#X obj 349 106 bng 15 250 50 0 empty empty empty 17 7 0 10 -262144
-1 -1;
#X obj 245 106 bng 15 250 50 0 empty empty empty 17 7 0 10 -262144
-1 -1;
#X obj 1130 96 r reset-fatigue;
#X msg 1126 116 0;
#X obj 1180 197 metro 60000;
#N canvas 18 282 1680 1001 sleep-scheduler 0;
#X obj 134 32 tgl 15 0 empty empty empty 17 7 0 10 -262144 -1 -1 0
1;
#X obj 161 840 f;
#X obj 639 375 t b;
#X obj 379 413 t b;
#X obj 1394 392 t b;
#X obj 1005 396 t b;
#X floatatom 218 844 5 0 0 0 - - -, f 5;
#X obj 607 8 r sleep-schedule-end;
#X obj 170 656 r sleep-schedule-end;
#X obj 188 841 -;
#X obj 178 870 <= 0;
#X obj 181 893 moses 0.5;
#X msg 233 921 0;
#X obj 493 342 sel 1 2 3 4;
#X obj 411 753 until;
#X msg 407 730 \$1;
#X msg 621 919 merge 1 \$1;
#X obj 621 958 coll sleep;
#C restore;
#X obj 641 522 mod 2;
#X msg 617 726 \$1;
#X obj 618 749 until;
#X msg 576 726 \$1;
#X obj 578 748 until;
#X floatatom 691 442 5 0 0 0 - - -, f 5;
#X msg 968 725 \$1;
#X obj 966 748 until;
#X msg 422 773 1;
#X msg 598 771 2;
#X msg 967 769 3;
#X msg 1395 763 4;
#X obj 1397 743 until;
#X msg 1396 722 \$1;
#X obj 1054 492 - 1;
#X msg 408 293 1;
#X msg 446 295 2;
#X msg 519 296 2;
#X msg 480 294 3;
#X msg 555 299 4;
#X obj 588 72 f;
#X obj 615 72 + 1;
#X obj 587 115 mod 5;
#X floatatom 687 170 5 0 0 0 - - -, f 5;
#X obj 653 189 moses 0.5;
#X obj 672 210 t b;
#X obj 671 233 f;
#X obj 701 233 + 1;
#X floatatom 708 257 5 0 0 0 - - -, f 5;
#X obj 678 278 moses 0.5;
#X msg 697 303 0;
#X obj 654 326 s sleep-schedule-end;
#X obj 170 11 r sleep-schedule-end;
#X obj 232 952 s sleep-schedule-end;
#X obj 319 557 gauss;
#X msg 363 533 4;
#X obj 319 602 int;
#X obj 554 637 gauss;
#X msg 600 618 17.5;
#X msg 571 618 5;
#X obj 553 656 clip 10 25;
#X obj 553 678 int;
#X floatatom 583 678 5 0 0 0 - - -, f 5;
#X floatatom 348 605 5 0 0 0 - - -, f 5;
#X obj 319 580 clip 1 7;
#X obj 588 591 t b;
#X obj 678 631 gauss;
#X obj 679 669 int;
#X floatatom 707 672 5 0 0 0 - - -, f 5;
#X msg 718 612 7.5;
#X msg 689 612 3;
#X obj 677 650 clip 5 10;
#X obj 684 586 t b;
#X obj 1400 637 gauss;
#X msg 1400 564 3.5, f 4;
#X obj 1521 585 +;
#X obj 1545 562 clip 0 20;
#X obj 1434 562 clip -20 0;
#X obj 1424 584 +;
#X obj 1484 509 - 1;
#X obj 1399 659 clip 18 60;
#X obj 1394 699 int;
#X floatatom 1423 703 5 0 0 0 - - -, f 5;
#X obj 1412 613 clip 0.01 10;
#X obj 1500 615 clip 0 40;
#X floatatom 1552 594 5 0 0 0 - - -, f 5;
#X floatatom 1455 585 5 0 0 0 - - -, f 5;
#X obj 960 635 gauss;
#X obj 1081 583 +;
#X obj 994 560 clip -20 0;
#X obj 984 582 +;
#X obj 960 678 int;
#X floatatom 989 682 5 0 0 0 - - -, f 5;
#X obj 972 611 clip 0.01 10;
#X obj 1060 613 clip 0 40;
#X floatatom 1112 592 5 0 0 0 - - -, f 5;
#X floatatom 1015 583 5 0 0 0 - - -, f 5;
#X obj 959 657 clip 20 40;
#X obj 1105 560 clip -20 0;
#X msg 1075 560 30;
#X msg 960 562 4, f 4;
#X obj 1081 406 r sleep-schedule-end;
#X obj 676 397 r sleep-schedule-end;
#X obj 1507 414 r sleep-schedule-end;
#X obj 415 417 bng 15 250 50 0 empty empty empty 17 7 0 10 -262144
-1 -1;
#X obj 667 379 bng 15 250 50 0 empty empty empty 17 7 0 10 -262144
-1 -1;
#X obj 1422 392 bng 15 250 50 0 empty empty empty 17 7 0 10 -262144
-1 -1;
#X obj 1037 400 bng 15 250 50 0 empty empty empty 17 7 0 10 -262144
-1 -1;
#X obj 616 590 bng 15 250 50 0 empty empty empty 17 7 0 10 -262144
-1 -1;
#X obj 715 583 bng 15 250 50 0 empty empty empty 17 7 0 10 -262144
-1 -1;
#X obj 538 273 hradio 15 1 0 5 empty empty empty 0 -8 0 10 -262144
-1 -1 4;
#X floatatom 731 236 5 0 0 0 - - -, f 5;
#X msg 726 938 clear;
#X floatatom 629 122 5 0 0 0 - - -, f 5;
#X floatatom 646 70 5 0 0 0 - - -, f 5;
#X obj 445 269 sel 0 1 2 3 4;
#X obj 649 168 == 4;
#X obj 706 210 r sleep-schedule-end;
#X obj 640 543 + 1;
#X msg 331 533 1.5;
#X obj 1007 533 * -0.5;
#X obj 669 255 == 8;
#X obj 586 93 - 1;
#X obj 641 502 - 1;
#X obj 676 419 delay 1;
#X obj 1082 432 delay 1;
#X obj 1105 536 * -1.75;
#X msg 129 796 480;
#X obj 1261 597 r sleep-schedule-end;
#X obj 816 575 r sleep-schedule-end;
#X obj 493 517 r sleep-schedule-end;
#X obj 164 531 r sleep-schedule-end;
#X msg 1515 562 23;
#X obj 1444 536 * -0.5;
#X text 221 874 stops scheduling when number of minutes is exceeded
;
#X text 190 251 sequences sleep cycle (N1 \, N2 \, N3 \, REM);
#X text 1081 505 decreases SD and mean with each iteration;
#X text 1404 374 increases SD and mean with each iteration;
#X text 385 513 N1;
#X text 689 504 alternates between N2 cycles;
#X text 610 430 N2;
#X text 948 448 N3;
#X text 1359 460 REM;
#X text 784 243 stops scheduling after eight cycles;
#X obj 5 801 r state-sleep-count;
#X msg 1317 664 0;
#X msg 517 618 0;
#X msg 890 656 0;
#X msg 196 808 0;
#X obj 498 636 bng 15 250 50 0 empty empty empty 17 7 0 10 -262144
-1 -1;
#X obj 214 763 bng 15 250 50 0 empty empty empty 17 7 0 10 -262144
-1 -1;
#X obj 167 795 bng 15 250 50 0 empty empty empty 17 7 0 10 -262144
-1 -1;
#X obj 851 664 bng 15 250 50 0 empty empty empty 17 7 0 10 -262144
-1 -1;
#X obj 1282 675 bng 15 250 50 0 empty empty empty 17 7 0 10 -262144
-1 -1;
#X obj 174 681 t b;
#X obj 178 704 delay 5;
#X obj 134 760 delay 1;
#X obj 844 632 delay 2;
#X obj 288 915 bng 15 250 50 0 empty empty empty 17 7 0 10 -262144
-1 -1;
#X obj 583 28 delay 1;
#X msg 583 47 0;
#X obj 330 471 delay 1;
#X obj 1372 525 delay 1;
#X obj 932 523 delay 1;
#X obj 630 563 sel 1 2;
#X floatatom 1100 472 5 0 0 0 - - -, f 5;
#X floatatom 1529 480 5 0 0 0 - - -, f 5;
#X obj 639 441 counter;
#X obj 1047 468 counter;
#X obj 25 8 r sleep-schedule-start;
#X obj 1480 476 counter;
#X obj 1268 619 t b;
#X obj 839 607 t b;
#X obj 500 548 t b;
#X obj 628 461 expr if($f1 == 0 \, 0 \, $f1);
#X obj 621 480 sel 0;
#X obj 1509 433 t b;
#X obj 1508 455 delay 1;
#X obj 1478 701 spigot;
#X msg 1524 681 0;
#X msg 1493 676 1;
#X obj 1490 638 r sleep-schedule-start;
#X obj 1523 660 r sleep-schedule-end;
#X obj 1294 644 delay 2;
#X obj 498 574 delay 1;
#X obj 1545 538 * 2.5;
#X obj 135 53 metro 1;
#X obj 924 47 inlet;
#X msg 926 72 1;
#X obj 928 101 s sleep-schedule-start;
#X connect 0 0 184 0;
#X connect 1 0 9 0;
#X connect 1 0 10 0;
#X connect 2 0 103 0;
#X connect 2 0 165 0;
#X connect 3 0 117 0;
#X connect 3 0 53 0;
#X connect 3 0 102 0;
#X connect 3 0 159 0;
#X connect 4 0 72 0;
#X connect 4 0 130 0;
#X connect 4 0 104 0;
#X connect 4 0 160 0;
#X connect 4 0 168 0;
#X connect 5 0 98 0;
#X connect 5 0 97 0;
#X connect 5 0 105 0;
#X connect 5 0 161 0;
#X connect 5 0 166 0;
#X connect 7 0 38 1;
#X connect 7 0 157 0;
#X connect 8 0 152 0;
#X connect 9 0 1 1;
#X connect 9 0 6 0;
#X connect 10 0 11 0;
#X connect 11 1 12 0;
#X connect 11 1 156 0;
#X connect 12 0 51 0;
#X connect 13 0 3 0;
#X connect 13 1 2 0;
#X connect 13 2 5 0;
#X connect 13 3 4 0;
#X connect 14 0 26 0;
#X connect 15 0 14 0;
#X connect 16 0 17 0;
#X connect 18 0 116 0;
#X connect 19 0 20 0;
#X connect 20 0 27 0;
#X connect 21 0 22 0;
#X connect 22 0 27 0;
#X connect 24 0 25 0;
#X connect 25 0 28 0;
#X connect 26 0 16 0;
#X connect 27 0 16 0;
#X connect 28 0 16 0;
#X connect 29 0 16 0;
#X connect 30 0 29 0;
#X connect 31 0 30 0;
#X connect 32 0 118 0;
#X connect 32 0 124 0;
#X connect 33 0 13 0;
#X connect 34 0 13 0;
#X connect 35 0 13 0;
#X connect 36 0 13 0;
#X connect 37 0 13 0;
#X connect 38 0 39 0;
#X connect 38 0 112 0;
#X connect 38 0 120 0;
#X connect 39 0 38 1;
#X connect 40 0 111 0;
#X connect 40 0 114 0;
#X connect 40 0 108 0;
#X connect 40 0 113 0;
#X connect 42 1 43 0;
#X connect 43 0 44 0;
#X connect 44 0 45 0;
#X connect 44 0 109 0;
#X connect 44 0 119 0;
#X connect 45 0 44 1;
#X connect 47 1 48 0;
#X connect 48 0 49 0;
#X connect 50 0 0 0;
#X connect 52 0 62 0;
#X connect 53 0 52 2;
#X connect 54 0 61 0;
#X connect 54 0 15 0;
#X connect 54 0 9 1;
#X connect 55 0 58 0;
#X connect 56 0 55 2;
#X connect 57 0 55 1;
#X connect 58 0 59 0;
#X connect 59 0 60 0;
#X connect 59 0 9 1;
#X connect 59 0 21 0;
#X connect 62 0 54 0;
#X connect 63 0 55 0;
#X connect 63 0 57 0;
#X connect 63 0 56 0;
#X connect 63 0 106 0;
#X connect 64 0 69 0;
#X connect 65 0 66 0;
#X connect 65 0 9 1;
#X connect 65 0 19 0;
#X connect 67 0 64 2;
#X connect 68 0 64 1;
#X connect 69 0 65 0;
#X connect 70 0 64 0;
#X connect 70 0 68 0;
#X connect 70 0 67 0;
#X connect 70 0 107 0;
#X connect 71 0 78 0;
#X connect 72 0 76 0;
#X connect 73 0 82 0;
#X connect 73 0 83 0;
#X connect 74 0 73 1;
#X connect 75 0 76 1;
#X connect 76 0 81 0;
#X connect 76 0 84 0;
#X connect 77 0 131 0;
#X connect 77 0 183 0;
#X connect 78 0 176 0;
#X connect 79 0 80 0;
#X connect 79 0 31 0;
#X connect 79 0 9 1;
#X connect 81 0 71 1;
#X connect 82 0 71 2;
#X connect 85 0 95 0;
#X connect 86 0 92 0;
#X connect 86 0 93 0;
#X connect 87 0 88 1;
#X connect 88 0 91 0;
#X connect 88 0 94 0;
#X connect 89 0 90 0;
#X connect 89 0 24 0;
#X connect 89 0 9 1;
#X connect 91 0 85 1;
#X connect 92 0 85 2;
#X connect 95 0 89 0;
#X connect 96 0 86 1;
#X connect 97 0 86 0;
#X connect 98 0 88 0;
#X connect 99 0 123 0;
#X connect 100 0 122 0;
#X connect 101 0 174 0;
#X connect 110 0 17 0;
#X connect 113 0 33 0;
#X connect 113 1 34 0;
#X connect 113 2 36 0;
#X connect 113 3 35 0;
#X connect 113 4 37 0;
#X connect 114 0 41 0;
#X connect 114 0 42 0;
#X connect 115 0 44 0;
#X connect 116 0 162 0;
#X connect 117 0 52 1;
#X connect 118 0 87 0;
#X connect 119 0 46 0;
#X connect 119 0 47 0;
#X connect 120 0 40 0;
#X connect 121 0 18 0;
#X connect 122 0 165 3;
#X connect 123 0 166 3;
#X connect 124 0 96 0;
#X connect 125 0 1 0;
#X connect 126 0 169 0;
#X connect 127 0 170 0;
#X connect 128 0 171 0;
#X connect 129 0 54 0;
#X connect 130 0 73 0;
#X connect 131 0 75 0;
#X connect 142 0 1 0;
#X connect 143 0 79 0;
#X connect 144 0 59 0;
#X connect 144 0 65 0;
#X connect 145 0 89 0;
#X connect 146 0 9 1;
#X connect 146 0 9 0;
#X connect 152 0 153 0;
#X connect 153 0 146 0;
#X connect 153 0 148 0;
#X connect 153 0 154 0;
#X connect 154 0 125 0;
#X connect 154 0 149 0;
#X connect 155 0 145 0;
#X connect 155 0 150 0;
#X connect 157 0 158 0;
#X connect 158 0 38 0;
#X connect 159 0 52 0;
#X connect 160 0 71 0;
#X connect 161 0 85 0;
#X connect 162 0 63 0;
#X connect 162 1 70 0;
#X connect 165 0 23 0;
#X connect 165 0 172 0;
#X connect 166 0 163 0;
#X connect 166 0 32 0;
#X connect 167 0 0 0;
#X connect 168 0 164 0;
#X connect 168 0 77 0;
#X connect 169 0 181 0;
#X connect 170 0 155 0;
#X connect 171 0 182 0;
#X connect 172 0 173 0;
#X connect 173 1 121 0;
#X connect 174 0 175 0;
#X connect 175 0 168 3;
#X connect 176 0 79 0;
#X connect 177 0 176 1;
#X connect 178 0 176 1;
#X connect 179 0 178 0;
#X connect 180 0 177 0;
#X connect 181 0 143 0;
#X connect 181 0 151 0;
#X connect 182 0 144 0;
#X connect 182 0 147 0;
#X connect 183 0 74 0;
#X connect 184 0 1 0;
#X connect 184 0 38 0;
#X connect 185 0 186 0;
#X connect 186 0 187 0;
#X restore 544 74 pd sleep-scheduler;
#X text 1 218 decides whether state is active;
#X text 250 149 bang on start or end;
#X text 1052 333 processes fatigue points;
#X obj 274 26 r state-sleep-toggle;
#X obj 237 126 s c-sleep-start;
#X obj 336 128 s c-sleep-end;
#X obj 1126 30 r state-sleep-toggle;
#X obj 1161 139 r state-sleep-toggle;
#X obj 1177 170 r state-sleep-toggle;
#X obj 992 119 r c-sleep-end;
#X obj 40 196 s state-sleep-toggle;
#X obj 82 176 s sleep-spig;
#X obj 167 53 r sleep-spig;
#X obj 16 79 s sleep-spig;
#X obj 546 41 bng 15 250 50 0 empty empty empty 17 7 0 10 -262144 -1
-1;
#X connect 0 0 3 0;
#X connect 1 0 52 0;
#X connect 2 0 18 0;
#X connect 2 0 23 0;
#X connect 3 0 1 0;
#X connect 3 0 17 0;
#X connect 3 0 22 0;
#X connect 4 0 1 0;
#X connect 4 0 53 0;
#X connect 5 0 26 0;
#X connect 6 0 26 0;
#X connect 7 0 9 0;
#X connect 8 0 7 1;
#X connect 9 0 10 0;
#X connect 10 0 11 0;
#X connect 10 1 12 0;
#X connect 11 0 7 1;
#X connect 12 0 8 0;
#X connect 13 0 7 0;
#X connect 14 0 16 0;
#X connect 15 0 7 0;
#X connect 15 0 30 0;
#X connect 16 0 7 0;
#X connect 17 0 21 0;
#X connect 18 0 17 0;
#X connect 19 0 20 0;
#X connect 20 1 4 0;
#X connect 21 0 19 0;
#X connect 22 0 55 0;
#X connect 24 0 21 1;
#X connect 26 0 13 0;
#X connect 27 0 25 0;
#X connect 28 0 29 0;
#X connect 29 0 26 0;
#X connect 30 0 31 0;
#X connect 31 0 16 0;
#X connect 32 0 33 0;
#X connect 33 0 35 0;
#X connect 33 0 37 0;
#X connect 33 1 34 0;
#X connect 33 1 36 0;
#X connect 34 0 47 0;
#X connect 35 0 46 0;
#X connect 38 0 39 0;
#X connect 39 0 26 0;
#X connect 40 0 7 0;
#X connect 45 0 32 0;
#X connect 48 0 28 0;
#X connect 49 0 13 1;
#X connect 50 0 40 0;
#X connect 51 0 15 0;
#X connect 54 0 24 0;
#X connect 56 0 41 0;
#X restore 1054 648 pd state-sleep;
#X obj 1118 580 r reset-c-sleep;
#X obj 980 340 r reset-c-sleep;
#X obj 85 572 s reset-c-sleep;
#X obj 484 572 s reset-c-sleep;
#X obj 179 396 r reset-c-work;
#X obj 368 630 r reset-c-work;
#N canvas 59 181 1340 759 state-work 1;
#X obj 7 8 inlet;
#X obj 79 173 tgl 15 0 empty empty empty 17 7 0 10 -262144 -1 -1 0
1;
#X obj 142 8 inlet;
#X msg 11 29 1;
#X msg 90 148 0;
#X obj 615 174 spigot;
#X obj 606 255 f;
#X floatatom 608 118 5 0 0 0 - - -, f 5;
#X msg 480 211 0;
#X obj 406 183 r reset-stress;
#X msg 501 146 send work-stress;
#X obj 508 47 r relax-stress;
#X obj 975 33 r relax-fatigue;
#X obj 1089 261 f;
#X obj 1092 173 spigot;
#X obj 836 184 r reset-fatigue;
#X msg 932 227 0;
#X obj 961 12 r sleep-fatigue;
#X msg 955 155 send work-fatigue;
#X obj 1118 261 + 0.666667;
#X floatatom 667 280 5 0 0 0 - - -, f 5;
#X floatatom 1135 285 5 0 0 0 - - -, f 5;
#X obj 294 57 == 0;
#X obj 294 83 moses 0.5;
#X obj 501 170 t b;
#X obj 339 107 t b;
#X obj 291 106 t b;
#X obj 371 108 bng 15 250 50 0 empty empty empty 17 7 0 10 -262144
-1 -1;
#X obj 455 249 r work-stress;
#X floatatom 459 286 5 0 0 0 - - -, f 5;
#X floatatom 88 58 5 0 0 0 - - -, f 5;
#X obj 134 32 t b;
#X obj 101 105 != 0;
#X obj 102 126 moses 0.5;
#X obj 133 77 spigot;
#X obj 9 57 delay 10;
#X obj 169 36 bng 15 250 50 0 empty empty empty 17 7 0 10 -262144 -1
-1;
#X obj 194 66 tgl 15 0 empty empty empty 17 7 0 10 -262144 -1 -1 0
1;
#X obj 267 108 bng 15 250 50 0 empty empty empty 17 7 0 10 -262144
-1 -1;
#X floatatom 620 219 5 0 0 0 - - -, f 5;
#X obj 607 66 t b;
#X obj 607 87 delay 10;
#X obj 504 191 delay 10;
#X obj 676 216 metro 60000;
#X obj 878 276 r work-fatigue;
#X floatatom 871 307 5 0 0 0 - - -, f 5;
#X floatatom 1060 116 5 0 0 0 - - -, f 5;
#X obj 640 255 + 1;
#X obj 1079 36 t b;
#X obj 1079 57 delay 10;
#X obj 952 178 t b;
#X obj 953 201 delay 10;
#X obj 1170 71 r reset-fatigue;
#X obj 663 68 r reset-stress;
#X msg 1106 92 0;
#X msg 674 88 0;
#X obj 1110 144 tgl 15 0 empty empty empty 17 7 0 10 -262144 -1 -1
0 1;
#X floatatom 1107 209 5 0 0 0 - - -, f 5;
#X msg 1037 225 send work-fatigue;
#X obj 1159 192 metro 60000;
#X text 1072 311 adds work fatigue;
#X text 554 316 adds work stress;
#X obj 9 79 s work-spig;
#X obj 73 196 s state-work-toggle;
#X obj 103 171 s work-spig;
#X obj 196 35 r work-spig;
#X obj 296 28 r state-work-toggle;
#X obj 259 128 s c-work-start;
#X obj 349 127 s c-work-end;
#X obj 505 123 r c-work-end;
#X obj 606 42 r state-work-toggle;
#X obj 646 143 r state-work-toggle;
#X obj 682 188 r state-work-toggle;
#X obj 971 133 r c-work-end;
#X obj 1081 9 r state-work-toggle;
#X obj 1125 116 r state-work-toggle;
#X obj 1158 157 r state-work-toggle;
#X obj 1004 178 r c-sleep-end;
#X obj 1114 491 spigot;
#X obj 1123 580 f;
#X floatatom 1113 439 5 0 0 0 - - -, f 5;
#X msg 978 573 0;
#X obj 1123 607 expr if($f1 <= 0 \, 0 \, $f1);
#X obj 1124 631 route 0;
#X floatatom 1181 653 5 0 0 0 - - -, f 5;
#X floatatom 1126 654 5 0 0 0 - - -, f 5;
#X obj 1007 529 t b;
#X floatatom 1063 648 5 0 0 0 - - -, f 5;
#X floatatom 902 640 5 0 0 0 - - -, f 5;
#X obj 1007 551 delay 10;
#X obj 1120 396 t b;
#X obj 1120 418 delay 10;
#X msg 1192 419 0;
#X obj 901 611 r work-pile;
#X obj 907 537 r reset-pile;
#X obj 974 453 r c-work-end;
#X obj 1148 447 r state-work-toggle;
#X obj 1165 493 r state-work-toggle;
#X obj 1121 374 r state-work-toggle;
#X obj 1170 398 r reset-pile;
#X obj 1025 406 r work-loader;
#X text 1067 680 processes work;
#X obj 70 262 r universal-minute;
#N canvas 496 34 480 407 work-piler 0;
#X obj 197 7 inlet;
#X obj 198 31 f;
#X obj 233 32 + 1;
#X obj 203 111 moses 0.5;
#X obj 254 132 t b;
#X obj 256 261 gauss;
#X obj 200 217 delay 1;
#X obj 255 282 int;
#X floatatom 248 59 5 0 0 0 - - -, f 5;
#X obj 216 351 f;
#X obj 243 352 +;
#X obj 194 304 delay 1;
#X floatatom 288 356 5 0 0 0 - - -, f 5;
#X obj 31 317 r reset-pile;
#X msg 35 342 0;
#X obj 216 383 s work-loader;
#X obj 254 311 clip 0 50;
#X floatatom 282 335 5 0 0 0 - - -, f 5;
#X obj 87 253 r work-pile;
#X floatatom 136 280 5 0 0 0 - - -, f 5;
#X msg 286 216 30;
#X msg 256 218 9;
#X obj 199 56 mod 20;
#X obj 203 88 == 19;
#X connect 0 0 1 0;
#X connect 1 0 2 0;
#X connect 1 0 22 0;
#X connect 2 0 1 1;
#X connect 3 1 4 0;
#X connect 4 0 20 0;
#X connect 4 0 21 0;
#X connect 4 0 6 0;
#X connect 5 0 7 0;
#X connect 6 0 5 0;
#X connect 6 0 11 0;
#X connect 7 0 16 0;
#X connect 9 0 12 0;
#X connect 9 0 15 0;
#X connect 9 0 10 0;
#X connect 10 0 9 1;
#X connect 11 0 9 0;
#X connect 13 0 14 0;
#X connect 14 0 9 0;
#X connect 16 0 10 1;
#X connect 16 0 17 0;
#X connect 18 0 9 0;
#X connect 18 0 19 0;
#X connect 20 0 5 2;
#X connect 21 0 5 1;
#X connect 22 0 8 0;
#X connect 22 0 23 0;
#X connect 23 0 3 0;
#X restore 61 380 pd work-piler;
#X obj 62 353 spigot;
#X obj 108 285 r state-work-toggle;
#X obj 108 305 * -1;
#X floatatom 1178 471 5 0 0 0 - - -, f 5;
#X floatatom 136 329 5 0 0 0 - - -, f 5;
#X obj 108 326 + 1;
#X msg 1007 498 send work-pile;
#X obj 1156 514 metro 1000;
#X text 54 406 piles on work;
#X obj 1155 581 - 4;
#X connect 0 0 3 0;
#X connect 1 0 63 0;
#X connect 2 0 31 0;
#X connect 2 0 36 0;
#X connect 3 0 1 0;
#X connect 3 0 30 0;
#X connect 3 0 35 0;
#X connect 4 0 1 0;
#X connect 4 0 64 0;
#X connect 5 0 6 0;
#X connect 5 0 39 0;
#X connect 6 0 20 0;
#X connect 6 0 47 0;
#X connect 7 0 5 0;
#X connect 8 0 6 0;
#X connect 9 0 8 0;
#X connect 10 0 6 0;
#X connect 10 0 24 0;
#X connect 11 0 7 0;
#X connect 12 0 46 0;
#X connect 13 0 21 0;
#X connect 13 0 19 0;
#X connect 14 0 13 0;
#X connect 14 0 57 0;
#X connect 15 0 16 0;
#X connect 16 0 13 0;
#X connect 17 0 46 0;
#X connect 18 0 13 0;
#X connect 18 0 50 0;
#X connect 19 0 13 1;
#X connect 22 0 23 0;
#X connect 23 0 26 0;
#X connect 23 0 38 0;
#X connect 23 1 25 0;
#X connect 23 1 27 0;
#X connect 24 0 42 0;
#X connect 25 0 68 0;
#X connect 26 0 67 0;
#X connect 28 0 29 0;
#X connect 30 0 34 0;
#X connect 31 0 30 0;
#X connect 32 0 33 0;
#X connect 33 1 4 0;
#X connect 34 0 32 0;
#X connect 35 0 62 0;
#X connect 37 0 34 1;
#X connect 40 0 41 0;
#X connect 41 0 7 0;
#X connect 42 0 8 0;
#X connect 43 0 6 0;
#X connect 44 0 45 0;
#X connect 46 0 14 0;
#X connect 47 0 6 1;
#X connect 48 0 49 0;
#X connect 49 0 46 0;
#X connect 50 0 51 0;
#X connect 51 0 16 0;
#X connect 52 0 54 0;
#X connect 53 0 55 0;
#X connect 54 0 46 0;
#X connect 55 0 7 0;
#X connect 58 0 13 0;
#X connect 59 0 13 0;
#X connect 65 0 37 0;
#X connect 66 0 22 0;
#X connect 69 0 10 0;
#X connect 70 0 40 0;
#X connect 71 0 5 1;
#X connect 72 0 43 0;
#X connect 73 0 18 0;
#X connect 74 0 48 0;
#X connect 75 0 14 1;
#X connect 75 0 56 0;
#X connect 76 0 59 0;
#X connect 77 0 58 0;
#X connect 78 0 79 0;
#X connect 79 0 87 0;
#X connect 79 0 82 0;
#X connect 80 0 78 0;
#X connect 81 0 79 0;
#X connect 82 0 83 0;
#X connect 83 0 85 0;
#X connect 83 1 84 0;
#X connect 84 0 113 0;
#X connect 85 0 79 1;
#X connect 86 0 89 0;
#X connect 89 0 81 0;
#X connect 90 0 91 0;
#X connect 91 0 80 0;
#X connect 92 0 80 0;
#X connect 93 0 88 0;
#X connect 94 0 81 0;
#X connect 95 0 110 0;
#X connect 96 0 78 1;
#X connect 96 0 107 0;
#X connect 97 0 111 0;
#X connect 98 0 90 0;
#X connect 99 0 92 0;
#X connect 100 0 80 0;
#X connect 102 0 104 0;
#X connect 104 0 103 0;
#X connect 105 0 106 0;
#X connect 106 0 109 0;
#X connect 109 0 104 1;
#X connect 109 0 108 0;
#X connect 110 0 86 0;
#X connect 110 0 79 0;
#X connect 111 0 79 0;
#X connect 113 0 79 1;
#X restore 284 697 pd state-work;
#X obj 876 534 s reset-c-work;
#X obj 876 552 s reset-c-relax;
#X obj 85 590 s reset-c-relax;
#X obj 484 590 s reset-c-work;
#X obj 762 655 r reset-c-relax;
#N canvas 353 45 1302 332 state-relax 0;
#X obj 17 9 inlet;
#X obj 66 175 tgl 15 0 empty empty empty 17 7 0 10 -262144 -1 -1 0
1;
#X obj 134 10 inlet;
#X msg 20 29 1;
#X msg 78 154 0;
#X obj 582 146 spigot;
#X obj 591 191 f;
#X obj 623 192 - 1;
#X floatatom 581 94 5 0 0 0 - - -, f 5;
#X msg 446 196 0;
#X obj 591 218 expr if($f1 <= 0 \, 0 \, $f1);
#X obj 592 242 route 0;
#X floatatom 649 264 5 0 0 0 - - -, f 5;
#X floatatom 594 265 5 0 0 0 - - -, f 5;
#X obj 374 174 r reset-stress;
#X msg 475 121 send relax-stress;
#X obj 494 29 r work-stress;
#X obj 1107 237 f;
#X obj 1110 188 spigot;
#X obj 824 176 r reset-fatigue;
#X msg 918 199 0;
#X obj 976 13 r sleep-fatigue;
#X msg 934 125 send relax-fatigue;
#X obj 963 35 r work-fatigue;
#X floatatom 1163 260 5 0 0 0 - - -, f 5;
#X obj 247 49 == 0;
#X obj 244 70 moses 0.5;
#X obj 475 152 t b;
#X obj 295 94 t b;
#X obj 244 92 t b;
#X floatatom 531 259 5 0 0 0 - - -, f 5;
#X obj 333 96 bng 15 250 50 0 empty empty empty 17 7 0 10 -262144 -1
-1;
#X obj 369 234 r relax-stress;
#X floatatom 370 263 5 0 0 0 - - -, f 5;
#X floatatom 88 58 5 0 0 0 - - -, f 5;
#X obj 134 32 t b;
#X obj 101 110 != 0;
#X obj 102 131 moses 0.5;
#X obj 120 88 spigot;
#X obj 14 54 delay 10;
#X obj 167 39 bng 15 250 50 0 empty empty empty 17 7 0 10 -262144 -1
-1;
#X obj 176 91 tgl 15 0 empty empty empty 17 7 0 10 -262144 -1 -1 0
1;
#X obj 223 92 bng 15 250 50 0 empty empty empty 17 7 0 10 -262144 -1
-1;
#X obj 475 174 delay 10;
#X obj 588 51 t b;
#X obj 588 73 delay 10;
#X obj 624 168 metro 60000;
#X obj 951 252 r relax-fatigue;
#X floatatom 955 281 5 0 0 0 - - -, f 5;
#X floatatom 1081 116 5 0 0 0 - - -, f 5;
#X obj 1079 32 t b;
#X obj 1079 54 delay 10;
#X obj 930 154 t b;
#X obj 930 176 delay 10;
#X obj 1122 75 r reset-fatigue;
#X obj 638 53 r reset-stress;
#X msg 1117 95 0;
#X msg 660 74 0;
#X msg 1010 210 send relax-fatigue;
#X obj 1143 234 + 0.333333;
#X obj 1178 202 metro 60000;
#X text 535 302 processes stress;
#X text 1103 303 adds relax fatigue;
#X obj 65 198 s state-relax-toggle;
#X obj 95 177 s relax-spig;
#X obj 14 75 s relax-spig;
#X obj 166 53 r relax-spig;
#X obj 193 124 s c-relax-start;
#X obj 249 27 r state-relax-toggle;
#X obj 296 113 s c-relax-end;
#X obj 475 99 r c-relax-end;
#X obj 589 29 r state-relax-toggle;
#X obj 614 119 r state-relax-toggle;
#X obj 633 148 r state-relax-toggle;
#X obj 1079 10 r state-relax-toggle;
#X obj 1143 131 r state-relax-toggle;
#X obj 1170 169 r state-relax-toggle;
#X obj 957 104 r c-relax-end;
#X obj 1010 184 r c-sleep-end;
#X connect 0 0 3 0;
#X connect 1 0 63 0;
#X connect 2 0 35 0;
#X connect 2 0 40 0;
#X connect 3 0 1 0;
#X connect 3 0 34 0;
#X connect 3 0 39 0;
#X connect 4 0 1 0;
#X connect 4 0 64 0;
#X connect 5 0 6 0;
#X connect 6 0 30 0;
#X connect 6 0 10 0;
#X connect 7 0 6 1;
#X connect 8 0 5 0;
#X connect 9 0 6 0;
#X connect 10 0 11 0;
#X connect 11 0 13 0;
#X connect 11 1 12 0;
#X connect 12 0 7 0;
#X connect 13 0 6 1;
#X connect 14 0 9 0;
#X connect 15 0 6 0;
#X connect 15 0 27 0;
#X connect 16 0 8 0;
#X connect 17 0 24 0;
#X connect 17 0 59 0;
#X connect 18 0 17 0;
#X connect 19 0 20 0;
#X connect 20 0 17 0;
#X connect 21 0 49 0;
#X connect 22 0 52 0;
#X connect 22 0 17 0;
#X connect 23 0 49 0;
#X connect 25 0 26 0;
#X connect 26 0 29 0;
#X connect 26 0 42 0;
#X connect 26 1 28 0;
#X connect 26 1 31 0;
#X connect 27 0 43 0;
#X connect 28 0 69 0;
#X connect 29 0 67 0;
#X connect 32 0 33 0;
#X connect 34 0 38 0;
#X connect 35 0 34 0;
#X connect 36 0 37 0;
#X connect 37 1 4 0;
#X connect 38 0 36 0;
#X connect 39 0 65 0;
#X connect 41 0 38 1;
#X connect 43 0 9 0;
#X connect 44 0 45 0;
#X connect 45 0 8 0;
#X connect 46 0 6 0;
#X connect 47 0 48 0;
#X connect 49 0 18 0;
#X connect 50 0 51 0;
#X connect 51 0 49 0;
#X connect 52 0 53 0;
#X connect 53 0 20 0;
#X connect 54 0 56 0;
#X connect 55 0 57 0;
#X connect 56 0 49 0;
#X connect 57 0 8 0;
#X connect 58 0 17 0;
#X connect 59 0 17 1;
#X connect 60 0 17 0;
#X connect 66 0 41 0;
#X connect 68 0 25 0;
#X connect 70 0 15 0;
#X connect 71 0 44 0;
#X connect 72 0 5 1;
#X connect 73 0 46 0;
#X connect 74 0 50 0;
#X connect 75 0 18 1;
#X connect 76 0 60 0;
#X connect 77 0 22 0;
#X connect 78 0 58 0;
#X restore 697 716 pd state-relax;
#X obj 593 381 r reset-c-relax;
#X obj 438 262 t b;
#X obj 462 262 t b;
#X obj 486 262 t b;
#X msg 106 546 1;
#X msg 504 542 2;
#X msg 914 506 3;
#X obj 491 118 + 1;
#N canvas 3 143 1680 1001 scheduler 0;
#X msg 748 913 clear;
#X obj 700 959 coll schedule;
#C restore;
#X obj 477 798 counter;
#X floatatom 536 797 5 0 0 0 - - -, f 5;
#X obj 908 833 counter;
#X floatatom 992 835 5 0 0 0 - - -, f 5;
#X obj 1201 790 counter;
#X floatatom 1255 790 5 0 0 0 - - -, f 5;
#X obj 758 935 s reset-state-counts;
#X obj 936 792 r reset-state-counts;
#X obj 1190 746 r reset-state-counts;
#X obj 509 756 r reset-state-counts;
#X obj 417 359 f;
#X obj 424 309 tgl 15 0 empty empty empty 17 7 0 10 -262144 -1 -1 0
1;
#X floatatom 487 363 5 0 0 0 - - -, f 5;
#X obj 103 392 gauss;
#X msg 133 348 480;
#X obj 99 420 int;
#X floatatom 142 414 5 0 0 0 - - -, f 5;
#X obj 137 369 + 0;
#X obj 194 285 r sleep-fatigue;
#X obj 171 306 * 0.25;
#X obj 170 327 clip 0 30;
#X floatatom 166 370 5 0 0 0 - - -, f 5;
#X obj 165 348 random 1;
#X obj 903 854 s state-relax-count;
#X msg 111 371 15;
#X obj 454 359 + 1;
#X obj 417 380 - 1;
#X floatatom 462 403 5 0 0 0 - - -, f 5;
#X obj 97 283 t b;
#X obj 811 49 r sleep-fatigue;
#X obj 788 30 r relax-stress;
#X obj 766 11 r work pile;
#X obj 733 346 gauss;
#X msg 763 302 480;
#X obj 729 374 int;
#X floatatom 758 375 5 0 0 0 - - -, f 5;
#X obj 767 323 + 0;
#X obj 801 260 * 0.25;
#X obj 800 281 clip 0 30;
#X floatatom 796 324 5 0 0 0 - - -, f 5;
#X obj 795 302 random 1;
#X msg 741 325 15;
#X obj 743 247 t b;
#X obj 818 240 r relax-stress;
#X obj 1389 349 gauss;
#X msg 1419 305 480;
#X obj 1385 377 int;
#X floatatom 1414 378 5 0 0 0 - - -, f 5;
#X obj 1423 326 + 0;
#X floatatom 1452 327 5 0 0 0 - - -, f 5;
#X obj 1451 305 random 1;
#X msg 1397 328 15;
#X obj 1399 250 t b;
#X obj 1476 243 r work-pile;
#X obj 1456 284 clip 0 30;
#X obj 1457 263 * 0.25;
#X obj 1403 402 t b;
#X obj 753 395 t b;
#X obj 142 435 t b;
#X obj 736 710 until;
#X obj 778 713 until;
#X obj 817 713 until;
#X msg 819 736 3;
#X msg 778 737 2;
#X msg 740 736 1;
#X obj 471 819 s state-work-count;
#X obj 1187 812 s state-sleep-count;
#X msg 731 813 merge 1 \$1;
#X msg 142 454 3;
#X msg 755 416 2;
#X msg 1403 422 1;
#X obj 102 481 pack \$1 3 \$2;
#X obj 716 447 pack \$1 2 \$2;
#X obj 1379 451 pack \$1 1 \$2;
#X obj 181 176 unpack \$1 \$2;
#X obj 743 172 unpack \$1 \$2;
#X obj 1280 171 unpack \$1 \$2;
#X obj 507 778 t b;
#X obj 937 812 t b;
#X obj 1201 766 t b;
#X obj 419 422 route 0 1 2;
#X obj 419 492 t b;
#X obj 443 492 t b;
#X obj 467 492 t b;
#X obj 491 444 t b;
#X obj 462 284 r schedule-sorter-end;
#X obj 418 401 mod 4;
#X obj 686 685 v work-count;
#X obj 768 685 v relax-count;
#X obj 856 682 v sleep-count;
#X msg 504 466 0;
#X obj 425 263 r schedule-sorter-start;
#X obj 413 333 metro 100;
#X obj 958 667 delay 5;
#X obj 954 646 t b;
#X msg 964 705 1;
#X obj 505 488 s schedule-sorter-end;
#X obj 963 728 s schedule-sorter-start;
#N canvas 622 102 450 300 difference-generator 0;
#X obj 159 13 inlet;
#X obj 82 258 outlet;
#X obj 178 253 outlet;
#X obj 288 252 outlet;
#X msg 240 90 1440;
#X obj 215 158 f;
#X obj 248 157 -;
#X floatatom 280 159 5 0 0 0 - - -, f 5;
#X obj 206 135 t b;
#X obj 196 113 unpack \$1 \$2;
#X obj 163 185 pack \$1 \$2;
#X obj 124 210 route 1 2 3;
#X msg 309 84 0;
#X obj 58 114 unpack \$1 \$2;
#X obj 62 140 pack \$1 \$2;
#X obj 126 70 route 6 7 8;
#X obj 275 29 r schedule-sorter-end;
#X obj 254 49 t b;
#X obj 250 70 delay 1;
#X obj 187 44 loadbang;
#X connect 0 0 15 0;
#X connect 4 0 5 0;
#X connect 5 0 6 0;
#X connect 5 0 7 0;
#X connect 5 0 10 1;
#X connect 6 0 5 1;
#X connect 8 0 5 0;
#X connect 9 0 10 0;
#X connect 9 1 6 1;
#X connect 10 0 11 0;
#X connect 11 0 1 0;
#X connect 11 1 2 0;
#X connect 11 2 3 0;
#X connect 12 0 6 1;
#X connect 12 0 6 0;
#X connect 13 0 14 0;
#X connect 13 1 6 1;
#X connect 13 1 14 1;
#X connect 14 0 11 0;
#X connect 15 0 13 0;
#X connect 15 0 8 0;
#X connect 15 1 13 0;
#X connect 15 1 8 0;
#X connect 15 2 8 0;
#X connect 15 2 9 0;
#X connect 16 0 12 0;
#X connect 16 0 17 0;
#X connect 17 0 18 0;
#X connect 18 0 4 0;
#X connect 19 0 4 0;
#X restore 767 619 pd difference-generator;
#X obj 748 891 t b;
#X obj 744 868 r clear-old-schedule;
#N canvas 0 23 1680 1001 order-finder 0;
#X floatatom 78 312 5 0 0 0 - - -, f 5;
#X floatatom 258 322 5 0 0 0 - - -, f 5;
#X floatatom 396 323 5 0 0 0 - - -, f 5;
#X floatatom 532 326 5 0 0 0 - - -, f 5;
#X floatatom 703 323 5 0 0 0 - - -, f 5;
#X floatatom 864 323 5 0 0 0 - - -, f 5;
#X floatatom 1001 323 5 0 0 0 - - -, f 5;
#X floatatom 1166 382 5 0 0 0 - - -, f 5;
#X floatatom 1225 380 5 0 0 0 - - -, f 5;
#X floatatom 1290 381 5 0 0 0 - - -, f 5;
#X floatatom 1354 376 5 0 0 0 - - -, f 5;
#X floatatom 1417 378 5 0 0 0 - - -, f 5;
#X floatatom 1483 376 5 0 0 0 - - -, f 5;
#X obj 78 331 == 1;
#X obj 66 351 moses 0.5;
#X obj 84 373 t b;
#X obj 257 340 == 1;
#X obj 245 360 moses 0.5;
#X obj 263 382 t b;
#X obj 397 341 == 1;
#X obj 385 361 moses 0.5;
#X obj 403 383 t b;
#X obj 533 344 == 1;
#X obj 521 364 moses 0.5;
#X obj 539 386 t b;
#X obj 704 343 == 1;
#X obj 692 363 moses 0.5;
#X obj 710 385 t b;
#X obj 865 342 == 1;
#X obj 853 362 moses 0.5;
#X obj 871 384 t b;
#X obj 1003 342 == 1;
#X obj 991 362 moses 0.5;
#X obj 1009 384 t b;
#X obj 1168 399 == 1;
#X obj 1156 419 moses 0.5;
#X obj 1174 441 t b;
#X obj 1228 397 == 1;
#X obj 1216 417 moses 0.5;
#X obj 1234 439 t b;
#X obj 1291 397 == 1;
#X obj 1279 417 moses 0.5;
#X obj 1297 439 t b;
#X obj 1356 396 == 1;
#X obj 1344 416 moses 0.5;
#X obj 1362 438 t b;
#X obj 1419 396 == 1;
#X obj 1407 416 moses 0.5;
#X obj 1425 438 t b;
#X obj 1481 395 == 1;
#X obj 1469 415 moses 0.5;
#X obj 1487 437 t b;
#X obj 778 954 outlet;
#X obj 1158 481 delay 1;
#X obj 1157 526 delay 1;
#X msg 806 873 2;
#X msg 774 873 1;
#X msg 849 872 3;
#X obj 1228 481 delay 1;
#X obj 1227 526 delay 1;
#X obj 1288 480 delay 1;
#X obj 1287 525 delay 1;
#X obj 1355 483 delay 1;
#X obj 1354 530 delay 1;
#X obj 1425 483 delay 1;
#X obj 1424 528 delay 1;
#X obj 1485 482 delay 1;
#X obj 1484 528 delay 1;
#X obj 813 758 r b1;
#X obj 846 755 r b2;
#X obj 878 755 r b3;
#X obj 1177 460 s b3;
#X obj 1171 503 s b2;
#X obj 1165 545 s b1;
#X obj 1371 459 s b3;
#X obj 1424 548 s b1;
#X obj 1501 503 s b2;
#X obj 1241 460 s b1;
#X obj 1235 503 s b3;
#X obj 1222 548 s b2;
#X obj 1307 459 s b2;
#X obj 1301 502 s b1;
#X obj 1289 547 s b3;
#X obj 1365 502 s b1;
#X obj 1352 547 s b2;
#X obj 1443 460 s b2;
#X obj 1437 503 s b3;
#X obj 1507 460 s b1;
#X obj 1488 548 s b3;
#X obj 407 407 s b3;
#X obj 401 426 delay 1;
#X obj 546 406 s b1;
#X obj 537 428 delay 1;
#X obj 1014 404 s b2;
#X obj 1007 429 delay 1;
#X obj 821 464 s b2;
#X obj 654 473 s b1;
#X obj 197 459 s b3;
#X obj 81 467 + 1;
#X obj 42 488 route 1 2 3;
#X obj 17 536 s b1;
#X obj 46 535 s b2;
#X obj 81 534 s b3;
#X obj 52 513 t b;
#X obj 78 513 t b;
#X obj 26 513 t b;
#X msg 83 396 3;
#X obj 86 421 until;
#X msg 254 414 2;
#X obj 247 436 until;
#X obj 247 486 urn 2;
#X obj 251 509 + 1;
#X obj 238 529 route 1 2;
#X obj 238 554 t b;
#X obj 265 555 t b;
#X obj 236 576 s b1;
#X obj 268 577 s b2;
#X obj 196 437 delay 3;
#X obj 404 206 expr if ($f1 == $f2 && $f2 == $f3 \, 1 \, 0) \; if ($f1
== $f2 && $f2 > $f3 \, 1 \, 0) \; if ($f1 == $f2 && $f2 < $f3 \, 1
\, 0) \; if ($f1 > $f2 && $f2 == $f3 \, 1 \, 0) \; if ($f1 < $f2 &&
$f2 == $f3 \, 1 \, 0) \; if ($f1 == $f3 && $f1 > $f2 \, 1 \, 0) \;
if ($f1 == $f3 && $f1 < $f2 \, 1 \, 0) \;;
#X obj 1207 286 expr if ($f1 < $f2 && $f2 < $f3 \, 1 \, 0) \; if ($f2
< $f3 && $f3 < $f1 \, 1 \, 0) \; if ($f3 < $f1 && $f1 < $f2 \, 1 \,
0) \; if ($f2 < $f1 && $f1 < $f3 \, 1 \, 0) \; if ($f1 < $f3 && $f3
< $f2 \, 1 \, 0) \; if ($f3 < $f2 && $f2 < $f1 \, 1 \, 0) \;;
#X msg 400 449 2;
#X obj 399 472 until;
#X obj 399 496 urn 2;
#X obj 399 518 + 1;
#X obj 399 540 route 1 2;
#X obj 391 584 s b1;
#X obj 391 562 t b;
#X obj 428 565 t b;
#X obj 428 587 s b2;
#X msg 538 449 2;
#X obj 539 473 until;
#X obj 538 493 urn 2;
#X obj 539 513 + 2;
#X obj 541 540 route 2 3;
#X obj 535 564 t b;
#X obj 535 586 s b2;
#X obj 568 563 t b;
#X msg 1009 452 2;
#X obj 1009 474 until;
#X obj 1009 496 urn 2;
#X obj 1009 518 route 0 1;
#X obj 1009 540 t b;
#X obj 1009 562 s b1;
#X obj 1038 539 t b;
#X obj 1040 564 s b3;
#X obj 653 448 delay 3;
#X msg 710 406 2;
#X obj 711 427 until;
#X obj 710 448 urn 2;
#X obj 712 469 + 2;
#X obj 711 492 route 2 3;
#X obj 712 514 t b;
#X obj 712 536 s b2;
#X obj 747 514 t b;
#X obj 747 536 s b3;
#X obj 568 585 s b3;
#X obj 817 441 delay 3;
#X msg 874 409 2;
#X obj 874 431 until;
#X obj 875 454 urn 2;
#X obj 878 482 route 0 1;
#X obj 906 505 t b;
#X obj 906 527 s b3;
#X obj 878 504 t b;
#X obj 291 432 delay 4;
#X msg 289 455 clear;
#X obj 457 424 delay 4;
#X msg 456 449 clear;
#X obj 81 446 urn 3;
#X obj 134 404 delay 4;
#X msg 132 428 clear;
#X obj 597 419 delay 4;
#X msg 595 443 clear;
#X obj 762 408 delay 4;
#X msg 760 432 clear;
#X obj 921 412 delay 4;
#X msg 919 436 clear;
#X obj 1070 410 delay 4;
#X msg 1068 434 clear;
#X obj 878 526 s b1;
#X obj 787 8 inlet;
#X obj 851 4 inlet;
#X obj 923 13 inlet;
#X obj 884 96 spigot;
#X obj 861 122 unpack \$1 \$2 \$3;
#X obj 844 72 pack \$1 \$2 \$3;
#X obj 881 30 t b;
#X obj 858 50 delay 1;
#X obj 940 845 counter;
#X obj 934 867 + 6;
#X obj 951 744 r scheduler-stop;
#X obj 954 797 t b;
#X obj 862 953 outlet;
#X obj 937 952 outlet;
#X obj 771 926 pack \$1 \$2;
#X obj 862 923 pack \$1 \$2;
#X obj 940 922 pack \$1 \$2;
#X obj 1085 21 inlet;
#X obj 994 4 inlet;
#X msg 960 50 1;
#X obj 966 768 r schedule-sorter-end;
#X connect 13 0 14 0;
#X connect 14 1 15 0;
#X connect 15 0 106 0;
#X connect 15 0 169 0;
#X connect 16 0 17 0;
#X connect 17 1 18 0;
#X connect 18 0 108 0;
#X connect 18 0 117 0;
#X connect 18 0 164 0;
#X connect 19 0 20 0;
#X connect 20 1 21 0;
#X connect 21 0 90 0;
#X connect 21 0 89 0;
#X connect 21 0 166 0;
#X connect 22 0 23 0;
#X connect 23 1 24 0;
#X connect 24 0 91 0;
#X connect 24 0 92 0;
#X connect 24 0 171 0;
#X connect 25 0 26 0;
#X connect 26 1 27 0;
#X connect 27 0 145 0;
#X connect 27 0 146 0;
#X connect 27 0 173 0;
#X connect 28 0 29 0;
#X connect 29 1 30 0;
#X connect 30 0 156 0;
#X connect 30 0 157 0;
#X connect 30 0 175 0;
#X connect 31 0 32 0;
#X connect 32 1 33 0;
#X connect 33 0 93 0;
#X connect 33 0 94 0;
#X connect 33 0 177 0;
#X connect 34 0 35 0;
#X connect 35 1 36 0;
#X connect 36 0 53 0;
#X connect 36 0 71 0;
#X connect 37 0 38 0;
#X connect 38 1 39 0;
#X connect 39 0 58 0;
#X connect 39 0 77 0;
#X connect 40 0 41 0;
#X connect 41 1 42 0;
#X connect 42 0 60 0;
#X connect 42 0 80 0;
#X connect 43 0 44 0;
#X connect 44 1 45 0;
#X connect 45 0 62 0;
#X connect 45 0 74 0;
#X connect 46 0 47 0;
#X connect 47 1 48 0;
#X connect 48 0 64 0;
#X connect 48 0 85 0;
#X connect 49 0 50 0;
#X connect 50 1 51 0;
#X connect 51 0 66 0;
#X connect 51 0 87 0;
#X connect 53 0 54 0;
#X connect 53 0 72 0;
#X connect 54 0 73 0;
#X connect 55 0 195 0;
#X connect 56 0 194 0;
#X connect 57 0 196 0;
#X connect 58 0 59 0;
#X connect 58 0 78 0;
#X connect 59 0 79 0;
#X connect 60 0 61 0;
#X connect 60 0 81 0;
#X connect 61 0 82 0;
#X connect 62 0 63 0;
#X connect 62 0 83 0;
#X connect 63 0 84 0;
#X connect 64 0 65 0;
#X connect 64 0 86 0;
#X connect 65 0 75 0;
#X connect 66 0 67 0;
#X connect 66 0 76 0;
#X connect 67 0 88 0;
#X connect 68 0 56 0;
#X connect 68 0 188 0;
#X connect 69 0 55 0;
#X connect 69 0 188 0;
#X connect 70 0 57 0;
#X connect 70 0 188 0;
#X connect 90 0 120 0;
#X connect 92 0 129 0;
#X connect 94 0 137 0;
#X connect 98 0 99 0;
#X connect 99 0 105 0;
#X connect 99 1 103 0;
#X connect 99 2 104 0;
#X connect 103 0 101 0;
#X connect 104 0 102 0;
#X connect 105 0 100 0;
#X connect 106 0 107 0;
#X connect 107 0 168 0;
#X connect 108 0 109 0;
#X connect 109 0 110 0;
#X connect 110 0 111 0;
#X connect 111 0 112 0;
#X connect 112 0 113 0;
#X connect 112 1 114 0;
#X connect 113 0 115 0;
#X connect 114 0 116 0;
#X connect 117 0 97 0;
#X connect 118 0 0 0;
#X connect 118 0 13 0;
#X connect 118 1 1 0;
#X connect 118 1 16 0;
#X connect 118 2 2 0;
#X connect 118 2 19 0;
#X connect 118 3 3 0;
#X connect 118 3 22 0;
#X connect 118 4 4 0;
#X connect 118 4 25 0;
#X connect 118 5 5 0;
#X connect 118 5 28 0;
#X connect 118 6 6 0;
#X connect 118 6 31 0;
#X connect 119 0 7 0;
#X connect 119 0 34 0;
#X connect 119 1 8 0;
#X connect 119 1 37 0;
#X connect 119 2 9 0;
#X connect 119 2 40 0;
#X connect 119 3 10 0;
#X connect 119 3 43 0;
#X connect 119 4 11 0;
#X connect 119 4 46 0;
#X connect 119 5 12 0;
#X connect 119 5 49 0;
#X connect 120 0 121 0;
#X connect 121 0 122 0;
#X connect 122 0 123 0;
#X connect 123 0 124 0;
#X connect 124 0 126 0;
#X connect 124 1 127 0;
#X connect 126 0 125 0;
#X connect 127 0 128 0;
#X connect 129 0 130 0;
#X connect 130 0 131 0;
#X connect 131 0 132 0;
#X connect 132 0 133 0;
#X connect 133 0 134 0;
#X connect 133 1 136 0;
#X connect 134 0 135 0;
#X connect 136 0 155 0;
#X connect 137 0 138 0;
#X connect 138 0 139 0;
#X connect 139 0 140 0;
#X connect 140 0 141 0;
#X connect 140 1 143 0;
#X connect 141 0 142 0;
#X connect 143 0 144 0;
#X connect 145 0 96 0;
#X connect 146 0 147 0;
#X connect 147 0 148 0;
#X connect 148 0 149 0;
#X connect 149 0 150 0;
#X connect 150 0 151 0;
#X connect 150 1 153 0;
#X connect 151 0 152 0;
#X connect 153 0 154 0;
#X connect 156 0 95 0;
#X connect 157 0 158 0;
#X connect 158 0 159 0;
#X connect 159 0 160 0;
#X connect 160 0 163 0;
#X connect 160 1 161 0;
#X connect 161 0 162 0;
#X connect 163 0 179 0;
#X connect 164 0 165 0;
#X connect 165 0 110 0;
#X connect 166 0 167 0;
#X connect 167 0 122 0;
#X connect 168 0 98 0;
#X connect 169 0 170 0;
#X connect 170 0 168 0;
#X connect 171 0 172 0;
#X connect 172 0 131 0;
#X connect 173 0 174 0;
#X connect 174 0 148 0;
#X connect 175 0 176 0;
#X connect 176 0 159 0;
#X connect 177 0 178 0;
#X connect 178 0 139 0;
#X connect 180 0 185 0;
#X connect 181 0 185 1;
#X connect 182 0 185 2;
#X connect 183 0 184 0;
#X connect 184 0 118 0;
#X connect 184 0 119 0;
#X connect 184 1 118 1;
#X connect 184 1 119 1;
#X connect 184 2 118 2;
#X connect 184 2 119 2;
#X connect 185 0 183 0;
#X connect 186 0 187 0;
#X connect 187 0 185 0;
#X connect 188 0 189 0;
#X connect 189 0 194 1;
#X connect 189 0 195 1;
#X connect 189 0 196 1;
#X connect 190 0 191 0;
#X connect 191 0 188 3;
#X connect 194 0 52 0;
#X connect 195 0 192 0;
#X connect 196 0 193 0;
#X connect 197 0 183 1;
#X connect 198 0 186 0;
#X connect 198 0 199 0;
#X connect 198 0 185 0;
#X connect 199 0 183 1;
#X connect 200 0 191 0;
#X restore 806 112 pd order-finder;
#X obj 222 42 == 1440;
#X obj 221 63 moses 0.5;
#X obj 272 86 t b;
#X msg 270 109 1;
#X obj 220 85 t b;
#X msg 220 107 0;
#X obj 268 135 s scheduler-run;
#X obj 165 136 s scheduler-stop;
#X obj 222 16 r universal-minute;
#X obj 1045 102 r scheduler-stop;
#X obj 1030 20 r scheduler-run;
#X obj 971 59 delay 1;
#X obj 1042 52 t b;
#X obj 1045 73 s clear-old-schedule;
#X obj 970 15 inlet;
#X obj 1041 677 loadbang;
#X obj 164 263 loadbang;
#X msg 162 282 0;
#X obj 790 221 loadbang;
#X msg 788 240 0;
#X obj 1449 224 loadbang;
#X msg 1447 243 0;
#X obj 92 324 loadbang;
#X obj 729 274 loadbang;
#X obj 1383 284 loadbang;
#X connect 0 0 1 0;
#X connect 0 0 8 0;
#X connect 2 0 3 0;
#X connect 2 0 67 0;
#X connect 4 0 5 0;
#X connect 4 0 25 0;
#X connect 6 0 7 0;
#X connect 6 0 68 0;
#X connect 9 0 80 0;
#X connect 10 0 81 0;
#X connect 11 0 79 0;
#X connect 12 0 27 0;
#X connect 12 0 28 0;
#X connect 13 0 94 0;
#X connect 15 0 17 0;
#X connect 16 0 19 0;
#X connect 17 0 18 0;
#X connect 17 0 60 0;
#X connect 17 0 73 2;
#X connect 19 0 15 2;
#X connect 19 0 23 0;
#X connect 20 0 21 0;
#X connect 21 0 22 0;
#X connect 22 0 24 1;
#X connect 24 0 19 1;
#X connect 26 0 15 1;
#X connect 27 0 12 1;
#X connect 27 0 14 0;
#X connect 28 0 88 0;
#X connect 30 0 15 0;
#X connect 30 0 26 0;
#X connect 30 0 16 0;
#X connect 30 0 24 0;
#X connect 31 0 103 2;
#X connect 32 0 103 1;
#X connect 33 0 103 0;
#X connect 34 0 36 0;
#X connect 35 0 38 0;
#X connect 36 0 37 0;
#X connect 36 0 59 0;
#X connect 36 0 74 2;
#X connect 38 0 34 2;
#X connect 38 0 41 0;
#X connect 39 0 40 0;
#X connect 40 0 42 1;
#X connect 42 0 38 1;
#X connect 43 0 34 1;
#X connect 44 0 34 0;
#X connect 44 0 43 0;
#X connect 44 0 35 0;
#X connect 44 0 42 0;
#X connect 45 0 39 0;
#X connect 46 0 48 0;
#X connect 47 0 50 0;
#X connect 48 0 49 0;
#X connect 48 0 58 0;
#X connect 48 0 75 2;
#X connect 50 0 46 2;
#X connect 50 0 51 0;
#X connect 52 0 50 1;
#X connect 53 0 46 1;
#X connect 54 0 46 0;
#X connect 54 0 53 0;
#X connect 54 0 47 0;
#X connect 54 0 52 0;
#X connect 55 0 57 0;
#X connect 56 0 52 1;
#X connect 57 0 56 0;
#X connect 58 0 72 0;
#X connect 59 0 71 0;
#X connect 60 0 70 0;
#X connect 61 0 66 0;
#X connect 62 0 65 0;
#X connect 63 0 64 0;
#X connect 64 0 6 0;
#X connect 64 0 69 0;
#X connect 65 0 4 0;
#X connect 65 0 69 0;
#X connect 66 0 2 0;
#X connect 66 0 69 0;
#X connect 69 0 1 0;
#X connect 70 0 73 1;
#X connect 71 0 74 1;
#X connect 72 0 75 1;
#X connect 73 0 100 0;
#X connect 74 0 100 0;
#X connect 75 0 100 0;
#X connect 76 0 30 0;
#X connect 76 1 73 0;
#X connect 77 0 44 0;
#X connect 77 1 74 0;
#X connect 78 0 54 0;
#X connect 78 1 75 0;
#X connect 79 0 2 3;
#X connect 80 0 4 3;
#X connect 81 0 6 3;
#X connect 82 0 83 0;
#X connect 82 1 84 0;
#X connect 82 2 85 0;
#X connect 82 3 86 0;
#X connect 83 0 89 0;
#X connect 84 0 90 0;
#X connect 85 0 91 0;
#X connect 86 0 92 0;
#X connect 87 0 13 0;
#X connect 87 0 12 1;
#X connect 87 0 27 0;
#X connect 88 0 29 0;
#X connect 88 0 82 0;
#X connect 89 0 61 0;
#X connect 90 0 62 0;
#X connect 91 0 63 0;
#X connect 92 0 98 0;
#X connect 93 0 13 0;
#X connect 94 0 12 0;
#X connect 95 0 97 0;
#X connect 96 0 95 0;
#X connect 97 0 99 0;
#X connect 100 0 89 0;
#X connect 100 1 90 0;
#X connect 100 2 91 0;
#X connect 100 2 96 0;
#X connect 101 0 0 0;
#X connect 102 0 101 0;
#X connect 103 0 76 0;
#X connect 103 1 77 0;
#X connect 103 2 78 0;
#X connect 104 0 105 0;
#X connect 105 0 108 0;
#X connect 105 1 106 0;
#X connect 106 0 107 0;
#X connect 107 0 110 0;
#X connect 108 0 109 0;
#X connect 109 0 111 0;
#X connect 112 0 104 0;
#X connect 113 0 103 4;
#X connect 114 0 115 0;
#X connect 114 0 116 0;
#X connect 115 0 103 3;
#X connect 116 0 117 0;
#X connect 118 0 115 0;
#X connect 118 0 116 0;
#X connect 119 0 97 0;
#X connect 120 0 121 0;
#X connect 121 0 21 0;
#X connect 122 0 123 0;
#X connect 123 0 39 0;
#X connect 124 0 125 0;
#X connect 125 0 57 0;
#X connect 126 0 16 0;
#X connect 126 0 26 0;
#X connect 126 0 15 0;
#X connect 127 0 35 0;
#X connect 127 0 43 0;
#X connect 127 0 34 0;
#X connect 128 0 47 0;
#X connect 128 0 53 0;
#X connect 128 0 46 0;
#X restore 981 43 pd scheduler;
#X obj 506 141 s universal-minute;
#X obj 705 160 bng 15 250 50 0 empty empty empty 17 7 0 10 -262144
-1 -1;
#X obj 705 180 s reset-pile;
#X obj 434 26 metro 60000;
#X msg 1109 909 To do \; 1 make work and relaxation schedules \; 2
make weekend scheduler \; 3 workshop synthesis sounds for various states
\;;
#X obj 980 20 bng 15 250 50 0 empty empty empty 17 7 0 10 -262144 -1
-1;
#X connect 1 0 2 3;
#X connect 2 0 4 0;
#X connect 3 0 6 0;
#X connect 4 0 32 0;
#X connect 6 0 5 0;
#X connect 6 0 8 0;
#X connect 7 0 130 0;
#X connect 8 0 119 0;
#X connect 8 1 120 0;
#X connect 8 2 121 0;
#X connect 9 0 10 3;
#X connect 10 0 27 0;
#X connect 10 0 25 0;
#X connect 11 0 12 3;
#X connect 12 0 13 0;
#X connect 12 0 19 0;
#X connect 14 0 15 3;
#X connect 15 0 16 0;
#X connect 15 0 22 0;
#X connect 17 0 18 0;
#X connect 17 0 124 0;
#X connect 18 0 43 0;
#X connect 18 0 104 0;
#X connect 18 0 72 0;
#X connect 18 0 63 0;
#X connect 19 0 28 0;
#X connect 20 0 21 0;
#X connect 20 0 122 0;
#X connect 21 0 46 0;
#X connect 21 0 111 0;
#X connect 21 0 70 0;
#X connect 21 0 58 0;
#X connect 22 0 29 0;
#X connect 23 0 24 0;
#X connect 23 0 123 0;
#X connect 24 0 49 0;
#X connect 24 0 117 0;
#X connect 24 0 71 0;
#X connect 24 0 67 0;
#X connect 25 0 26 0;
#X connect 26 1 17 0;
#X connect 28 1 20 0;
#X connect 29 1 23 0;
#X connect 30 0 40 0;
#X connect 31 1 30 0;
#X connect 32 0 31 0;
#X connect 33 0 34 0;
#X connect 35 0 1 0;
#X connect 36 0 9 0;
#X connect 37 0 11 0;
#X connect 38 0 14 0;
#X connect 39 0 40 3;
#X connect 40 0 41 0;
#X connect 42 0 43 3;
#X connect 43 0 44 0;
#X connect 45 0 46 3;
#X connect 46 0 47 0;
#X connect 48 0 49 3;
#X connect 49 0 50 0;
#X connect 51 0 42 0;
#X connect 52 0 45 0;
#X connect 53 0 48 0;
#X connect 54 0 39 0;
#X connect 55 0 59 0;
#X connect 56 0 55 1;
#X connect 57 0 56 0;
#X connect 58 0 57 0;
#X connect 60 0 59 1;
#X connect 61 0 60 1;
#X connect 62 0 61 0;
#X connect 63 0 62 0;
#X connect 64 0 59 0;
#X connect 64 0 59 1;
#X connect 65 0 64 1;
#X connect 66 0 65 0;
#X connect 67 0 66 0;
#X connect 68 0 55 0;
#X connect 69 0 64 0;
#X connect 70 0 56 0;
#X connect 71 0 65 0;
#X connect 72 0 61 0;
#X connect 73 0 60 0;
#X connect 75 0 117 1;
#X connect 76 0 111 1;
#X connect 77 0 104 1;
#X connect 79 0 80 0;
#X connect 83 0 84 0;
#X connect 85 0 104 1;
#X connect 86 0 111 1;
#X connect 87 0 117 1;
#X connect 88 0 14 0;
#X connect 89 0 11 0;
#X connect 90 0 9 0;
#X connect 95 0 96 0;
#X connect 96 0 97 0;
#X connect 97 0 3 0;
#X connect 97 1 102 0;
#X connect 98 0 99 0;
#X connect 98 1 100 1;
#X connect 99 0 100 0;
#X connect 100 0 125 0;
#X connect 101 3 95 0;
#X connect 102 0 6 0;
#X connect 105 0 85 0;
#X connect 106 0 90 0;
#X connect 109 0 89 0;
#X connect 110 0 86 0;
#X connect 116 0 87 0;
#X connect 118 0 88 0;
#X connect 119 0 12 0;
#X connect 120 0 15 0;
#X connect 121 0 10 0;
#X connect 122 0 107 0;
#X connect 122 0 114 0;
#X connect 123 0 108 0;
#X connect 123 0 115 0;
#X connect 124 0 112 0;
#X connect 124 0 113 0;
#X connect 125 0 96 1;
#X connect 125 0 127 0;
#X connect 128 0 129 0;
#X connect 130 0 78 0;
#X connect 130 0 98 0;
#X connect 130 0 101 0;
#X connect 132 0 126 0;
