#N canvas 51 55 869 720 10;
#X declare -stdpath cyclone;
#X obj 12 18 declare -stdpath cyclone;
#X obj 479 691 dac~;
#X obj 309 616 *~;
#X obj 324 538 0.4 50;
#X obj 329 563 line~;
#X obj 389 537 0 50;
#X obj 276 557 osc~;
#X obj 274 533 +~;
#X obj 292 508 *~;
#X obj 326 511 bng 15 250 50 0 empty empty empty 17 7 0 10 -262144
-1 -1;
#X obj 384 517 bng 15 250 50 0 empty empty empty 17 7 0 10 -262144
-1 -1;
#X obj 175 348 noise~;
#X obj 240 368 bp~ 100 10;
#X obj 179 182 osc~;
#X obj 193 251 snapshot~;
#X obj 231 185 tgl 15 0 empty empty empty 17 7 0 10 -262144 -1 -1 1
1;
#X floatatom 210 292 5 0 0 0 - - -, f 5;
#X obj 231 215 metro 100;
#X obj 442 31 tgl 15 0 empty empty empty 17 7 0 10 -262144 -1 -1 1
1;
#X obj 440 82 random 2;
#X floatatom 441 105 5 0 0 0 - - -, f 5;
#X obj 436 123 t b f;
#X obj 469 144 sel 0 1;
#X obj 474 165 bng 15 250 50 0 empty empty empty 17 7 0 10 -262144
-1 -1;
#X obj 500 168 bng 15 250 50 0 empty empty empty 17 7 0 10 -262144
-1 -1;
#X msg 464 190 -1;
#X msg 502 192 1;
#X obj 464 218 +;
#X obj 434 218 f;
#X floatatom 436 245 5 0 0 0 - - -, f 5;
#X obj 430 292 + 0.15;
#X floatatom 484 295 5 0 0 0 - - -, f 5;
#X obj 433 270 * 0.005;
#X msg 401 184 10;
#X msg 140 138 0.007;
#X text 388 9 random walk to control q;
#X obj 426 313 clip 0.015 10;
#X obj 170 271 + 1.01563;
#X obj 168 293 * 200;
#X obj 441 56 metro 10;
#X text 114 113 lfo to sweep band;
#X text 356 401 modulation index;
#X msg 367 422 1500;
#X obj 637 625 *~;
#X obj 652 547 0.4 50;
#X obj 657 572 line~;
#X obj 717 546 0 50;
#X obj 604 566 osc~;
#X obj 602 542 +~;
#X obj 620 517 *~;
#X obj 654 520 bng 15 250 50 0 empty empty empty 17 7 0 10 -262144
-1 -1;
#X obj 712 526 bng 15 250 50 0 empty empty empty 17 7 0 10 -262144
-1 -1;
#X obj 503 357 noise~;
#X obj 568 377 bp~ 100 10;
#X obj 617 168 osc~;
#X obj 631 237 snapshot~;
#X obj 669 171 tgl 15 0 empty empty empty 17 7 0 10 -262144 -1 -1 1
1;
#X floatatom 648 278 5 0 0 0 - - -, f 5;
#X obj 669 201 metro 100;
#X msg 578 124 0.007;
#X obj 608 257 + 1.01563;
#X obj 606 279 * 200;
#X text 552 99 lfo to sweep band;
#X text 684 410 modulation index;
#X msg 695 431 1500;
#X msg 254 506 500;
#X msg 582 515 400;
#X connect 2 0 1 0;
#X connect 3 0 4 0;
#X connect 4 0 2 1;
#X connect 5 0 4 0;
#X connect 6 0 2 0;
#X connect 7 0 6 0;
#X connect 8 0 7 1;
#X connect 9 0 3 0;
#X connect 10 0 5 0;
#X connect 11 0 12 0;
#X connect 12 0 8 0;
#X connect 13 0 14 0;
#X connect 14 0 37 0;
#X connect 15 0 17 0;
#X connect 17 0 14 0;
#X connect 18 0 39 0;
#X connect 19 0 20 0;
#X connect 20 0 21 0;
#X connect 21 0 28 0;
#X connect 21 1 22 0;
#X connect 22 0 23 0;
#X connect 22 1 24 0;
#X connect 23 0 25 0;
#X connect 24 0 26 0;
#X connect 25 0 27 1;
#X connect 26 0 27 1;
#X connect 27 0 28 1;
#X connect 28 0 27 0;
#X connect 28 0 29 0;
#X connect 29 0 32 0;
#X connect 30 0 31 0;
#X connect 30 0 36 0;
#X connect 32 0 30 0;
#X connect 33 0 28 0;
#X connect 34 0 13 0;
#X connect 36 0 12 2;
#X connect 36 0 53 2;
#X connect 37 0 38 0;
#X connect 38 0 16 0;
#X connect 38 0 12 1;
#X connect 39 0 19 0;
#X connect 42 0 8 1;
#X connect 43 0 1 1;
#X connect 44 0 45 0;
#X connect 45 0 43 1;
#X connect 46 0 45 0;
#X connect 47 0 43 0;
#X connect 48 0 47 0;
#X connect 49 0 48 1;
#X connect 50 0 44 0;
#X connect 51 0 46 0;
#X connect 52 0 53 0;
#X connect 53 0 49 0;
#X connect 54 0 55 0;
#X connect 55 0 60 0;
#X connect 56 0 58 0;
#X connect 58 0 55 0;
#X connect 59 0 54 0;
#X connect 60 0 61 0;
#X connect 61 0 57 0;
#X connect 61 0 53 1;
#X connect 64 0 49 1;
#X connect 65 0 7 0;
#X connect 66 0 48 0;
