#N canvas 650 72 1046 767 10;
#X obj 179 490 *~;
#X obj 231 646 dac~;
#X obj 248 581 *~;
#X obj 324 558 line~;
#X obj 376 528 0 50;
#X obj 321 505 bng 15 250 50 0 empty empty empty 17 7 0 10 -262144
-1 -1;
#X obj 322 528 0.4 50;
#X obj 376 505 bng 15 250 50 0 empty empty empty 17 7 0 10 -262144
-1 -1;
#X obj 204 424 bp~ 100 10;
#X obj 109 462 osc~;
#X obj 157 383 noise~;
#X obj 204 212 osc~;
#X obj 218 281 snapshot~;
#X obj 256 215 tgl 15 0 empty empty empty 17 7 0 10 -262144 -1 -1 0
1;
#X floatatom 235 322 5 0 0 0 - - -, f 5;
#X obj 256 245 metro 100;
#X obj 193 323 * 10;
#X obj 410 77 tgl 15 0 empty empty empty 17 7 0 10 -262144 -1 -1 0
1;
#X obj 408 128 random 2;
#X floatatom 409 151 5 0 0 0 - - -, f 5;
#X obj 404 169 t b f;
#X obj 437 190 sel 0 1;
#X obj 442 211 bng 15 250 50 0 empty empty empty 17 7 0 10 -262144
-1 -1;
#X obj 468 214 bng 15 250 50 0 empty empty empty 17 7 0 10 -262144
-1 -1;
#X msg 432 236 -1;
#X msg 470 238 1;
#X obj 432 264 +;
#X obj 402 264 f;
#X floatatom 404 291 5 0 0 0 - - -, f 5;
#X obj 292 370 + 0.15;
#X floatatom 346 373 5 0 0 0 - - -, f 5;
#X obj 295 348 * 0.005;
#X msg 369 230 10;
#X msg 165 168 0.007;
#X text 356 55 random walk to control q;
#X msg 101 440 660;
#X obj 194 301 + 1.0625;
#X obj 288 391 clip 0.015 10;
#X obj 409 102 metro 100;
#X text 139 143 vlo to sweep band;
#X connect 0 0 2 0;
#X connect 2 0 1 0;
#X connect 2 0 1 1;
#X connect 3 0 2 1;
#X connect 4 0 3 0;
#X connect 5 0 6 0;
#X connect 6 0 3 0;
#X connect 7 0 4 0;
#X connect 8 0 0 1;
#X connect 9 0 0 0;
#X connect 10 0 8 0;
#X connect 11 0 12 0;
#X connect 12 0 36 0;
#X connect 13 0 15 0;
#X connect 15 0 12 0;
#X connect 16 0 8 1;
#X connect 16 0 14 0;
#X connect 17 0 38 0;
#X connect 18 0 19 0;
#X connect 19 0 20 0;
#X connect 20 0 27 0;
#X connect 20 1 21 0;
#X connect 21 0 22 0;
#X connect 21 1 23 0;
#X connect 22 0 24 0;
#X connect 23 0 25 0;
#X connect 24 0 26 1;
#X connect 25 0 26 1;
#X connect 26 0 27 1;
#X connect 27 0 26 0;
#X connect 27 0 28 0;
#X connect 28 0 31 0;
#X connect 29 0 30 0;
#X connect 29 0 37 0;
#X connect 31 0 29 0;
#X connect 32 0 27 0;
#X connect 33 0 11 0;
#X connect 35 0 9 0;
#X connect 36 0 16 0;
#X connect 37 0 8 2;
#X connect 38 0 18 0;
